<mxfile host="app.diagrams.net" modified="2023-04-25T08:01:44.411Z" agent="Mozilla/5.0 (Macintosh; Intel Mac OS X 10_15_7) AppleWebKit/537.36 (KHTML, like Gecko) Chrome/112.0.0.0 Safari/537.36" version="21.2.1" etag="BTodzy5egQ_cqLh5pt9s" type="github">
  <diagram name="Page-1" id="PlIgevGMCSv-zmXggFxV">
    <mxGraphModel>
      <root>
        <mxCell id="0" />
        <mxCell id="1" parent="0" />
      </root>
    </mxGraphModel>
  </diagram>
</mxfile>
